Motion_mu01
version=1
nRows=10
nColumns=43
inDegrees=yes
endheader
time	pelvis_tilt	pelvis_list	pelvis_rotation	pelvis_tx	pelvis_ty	pelvis_tz	hip_flexion_r	hip_adduction_r	hip_rotation_r	knee_angle_r	ankle_angle_r	subtalar_angle_r	mtp_angle_r	hip_flexion_l	hip_adduction_l	hip_rotation_l	knee_angle_l	ankle_angle_l	subtalar_angle_l	mtp_angle_l	lumbar_extension	lumbar_bending	lumbar_rotation	neck_flexion	neck_lateral_bending	neck_rotation	arm_flex_r	arm_add_r	arm_rot_r	elbow_flex_r	pro_sup_r	wrist_flex_r	wrist_dev_r	hand_finger_flex_r	arm_flex_l	arm_add_l	arm_rot_l	elbow_flex_l	pro_sup_l	wrist_flex_l	wrist_dev_l	hand_finger_flex_l
      2.24750000	     -2.48703936	      5.89550250	    -97.04298984	     -0.02868568	      1.83450430	      0.92424119	     66.75338261	     -1.17797475	     -1.39589518	    -43.61232216	    -23.39170192	     -2.37121738	     -9.19946252	     61.46326735	     -0.03889535	      4.03649868	    -36.56373911	    -22.93500540	      4.28905455	      6.34960014	    -64.02699483	     -1.53123334	     -1.60227134	    -18.83378806	     -7.54780740	     -2.05740934	   -242.82653563	   -152.32354916	   -211.04005162	    145.32435039	    160.51789216	    -53.43259687	    -24.99999983	     76.06390651	    -70.34807651	    -14.48377026	    -27.38267004	    135.83092474	    167.97802235	    -85.94748517	    -17.13890904	     81.92919108
      2.25000000	     -2.41235104	      6.03650342	    -97.08697436	     -0.02877198	      1.83510535	      0.92489638	     66.70553403	     -1.19229939	     -1.39793408	    -43.59484541	    -23.13637097	     -2.23976864	     -9.08630038	     61.40790604	      0.00086076	      4.05353975	    -36.52062005	    -22.91191640	      4.40257041	      6.40188870	    -63.85313379	     -1.55482170	     -1.62743084	    -18.96113893	     -7.55756131	     -2.01627473	   -242.48999850	   -152.46437624	   -210.78826067	    145.09596630	    160.74277896	    -53.40278357	    -24.99999983	     76.10746915	    -70.07133889	    -14.40231066	    -27.28932877	    135.60938297	    167.91194531	    -85.72908398	    -17.19866307	     81.92945696
      2.25250000	     -2.33706164	      6.17091242	    -97.12096568	     -0.02885926	      1.83572056	      0.92555487	     66.65301309	     -1.21282750	     -1.40209904	    -43.58588402	    -22.86736067	     -2.09544645	     -8.96941693	     61.35272664	      0.04986400	      4.06953234	    -36.48722005	    -22.89907542	      4.50071300	      6.45153617	    -63.68388741	     -1.56905504	     -1.66438531	    -19.08702033	     -7.56345964	     -1.97537940	   -242.14782921	   -152.60176698	   -210.53154779	    144.88760787	    160.97145109	    -53.37690956	    -24.99999983	     76.15248568	    -69.79631687	    -14.32652788	    -27.20519856	    135.36379936	    167.85058975	    -85.50183792	    -17.25723443	     81.92926504
      2.25500000	     -2.26679549	      6.30173576	    -97.14159312	     -0.02889887	      1.83635789	      0.92619938	     66.59257945	     -1.24564027	     -1.40490684	    -43.58247694	    -22.57956726	     -1.93812217	     -8.84746689	     61.29750433	      0.10711255	      4.08271225	    -36.46062752	    -22.89200091	      4.58252738	      6.49913001	    -63.51499754	     -1.57023193	     -1.70338055	    -19.21404450	     -7.57744342	     -1.93287788	   -241.79661667	   -152.73220169	   -210.28594199	    144.66478414	    161.20457923	    -53.35163946	    -24.99999983	     76.19943740	    -69.51655880	    -14.25816855	    -27.12613131	    135.12797128	    167.79576436	    -85.27457985	    -17.31811890	     81.92646378
      2.25750000	     -2.19759102	      6.42785620	    -97.15880292	     -0.02887579	      1.83700467	      0.92687234	     66.52948846	     -1.29096508	     -1.41262202	    -43.58591125	    -22.26664101	     -1.76594183	     -8.71781922	     61.24307905	      0.17166124	      4.10073689	    -36.44544720	    -22.88840629	      4.64942811	      6.54591647	    -63.34972879	     -1.55235679	     -1.74634180	    -19.34792287	     -7.59169038	     -1.89024834	   -241.43505635	   -152.85776991	   -210.03452269	    144.44550573	    161.44496362	    -53.32887800	    -24.99999983	     76.24691613	    -69.22822249	    -14.18930990	    -27.05175858	    134.87099315	    167.74740748	    -85.04268274	    -17.38114123	     81.92267622
      2.26000000	     -2.18302894	      6.48348443	    -97.18367720	     -0.02882745	      1.83710672	      0.92720547	     66.45919567	     -1.29460678	     -1.41438745	    -43.62659672	    -22.23582805	     -1.74510591	     -8.70403924	     61.17365708	      0.20568607	      4.10100975	    -36.48869433	    -22.89448531	      4.65727981	      6.55033942	    -63.23439109	     -1.53376888	     -1.72987674	    -19.35020374	     -7.59342675	     -1.88513668	   -241.28066211	   -152.94701448	   -210.02593618	    144.46294174	    161.46463273	    -53.33501650	    -24.99999983	     76.24878292	    -69.20777566	    -14.16210543	    -27.02687947	    134.83761073	    167.74577462	    -85.01819914	    -17.39029154	     81.92300110
      2.26250000	     -2.00706949	      6.74187515	    -97.02222638	     -0.02865738	      1.83779612	      0.92825561	     66.52640770	     -1.61863252	     -1.52065882	    -43.78129948	    -21.10400126	     -0.78443056	     -8.09569955	     61.25492374	      0.46706584	      4.15045996	    -36.45382553	    -22.92772992	      4.81531575	      6.76271492	    -62.85614289	     -1.42336508	     -1.99848179	    -19.94106354	     -7.55621619	     -1.78117586	   -240.69944281	   -153.04542129	   -209.51059242	    143.99484223	    162.50974313	    -53.43059600	    -24.99999983	     76.42878379	    -68.83861375	    -13.98975343	    -27.02431650	    134.43941750	    167.54204654	    -84.26149945	    -17.72558866	     81.86890964
      2.26500000	     -1.96602097	      6.83934448	    -97.04488615	     -0.02853806	      1.83849425	      0.92880500	     66.44985729	     -1.63074814	     -1.48285342	    -43.79354572	    -21.00642645	     -0.75710694	     -8.02731741	     61.19439509	      0.52542881	      4.19787342	    -36.50397863	    -22.89899160	      4.79651160	      6.79189506	    -62.73831146	     -1.38736708	     -1.99483782	    -19.85029464	     -7.59007955	     -1.76187235	   -240.39775583	   -153.17889459	   -209.37806157	    143.77945550	    162.56527886	    -53.41727869	    -24.99999983	     76.44143107	    -68.49859123	    -13.96236888	    -26.92447397	    134.20017212	    167.53154369	    -84.13608629	    -17.76671464	     81.85786743
      2.26750000	     -1.93228256	      6.95299638	    -97.05568471	     -0.02846855	      1.83923593	      0.92945690	     66.35591577	     -1.65364081	     -1.49573100	    -43.79310701	    -20.77917726	     -0.70454583	     -7.92538703	     61.12891025	      0.58091389	      4.24867322	    -36.52496116	    -22.86161365	      4.76753422	      6.82495567	    -62.58936266	     -1.33441547	     -2.00893111	    -19.90578440	     -7.65388740	     -1.73496610	   -240.04630381	   -153.29258886	   -209.14823928	    143.56522213	    162.67807872	    -53.40199610	    -24.99999983	     76.45650414	    -68.13966631	    -13.90423889	    -26.82508828	    133.87395812	    167.52405077	    -83.98107930	    -17.81419144	     81.85107844
      2.27000000	     -1.91061602	      7.07590283	    -97.04077284	     -0.02837329	      1.83992725	      0.93012653	     66.27027790	     -1.69589664	     -1.53608082	    -43.81378346	    -20.47576469	     -0.61891382	     -7.80072497	     61.07682300	      0.64463142	      4.30110974	    -36.55302531	    -22.81568703	      4.73191004	      6.86053933	    -62.41671504	     -1.25968877	     -2.03303001	    -20.01940274	     -7.71747695	     -1.71364789	   -239.68141835	   -153.38304392	   -208.92253509	    143.32217875	    162.83861064	    -53.38956109	    -24.99999983	     76.47209997	    -67.80861644	    -13.84174610	    -26.73620135	    133.57104746	    167.52484762	    -83.82429829	    -17.87313651	     81.84427464
